<?xml version="1.0" standalone="no"?>
<!DOCTYPE svg PUBLIC "-//W3C//DTD SVG 20010904//EN"
 "http://www.w3.org/TR/2001/REC-SVG-20010904/DTD/svg10.dtd">
<svg version="1.0" xmlns="http://www.w3.org/2000/svg"
 width="205.000000pt" height="245.000000pt" viewBox="0 0 205.000000 245.000000"
 preserveAspectRatio="xMidYMid meet">

<g transform="translate(0.000000,245.000000) scale(0.100000,-0.100000)"
fill="#000000" stroke="none">
<path d="M400 2440 c-157 -30 -273 -117 -345 -260 -75 -148 -68 -299 19 -431
24 -35 25 -41 14 -91 -16 -74 -5 -104 58 -166 34 -34 53 -60 50 -69 -3 -8 -15
-60 -27 -116 -27 -133 -23 -342 10 -455 83 -286 318 -525 621 -633 36 -12 80
-35 98 -51 37 -32 85 -37 120 -12 20 14 22 14 22 -1 0 -27 38 -91 70 -119 43
-36 77 -43 113 -22 24 14 35 14 62 5 46 -17 83 -4 106 36 19 31 22 33 50 23
40 -14 85 5 105 45 12 22 14 46 10 91 -4 34 -3 66 2 73 4 7 35 30 67 51 350
226 508 687 373 1087 -16 50 -41 143 -54 207 -40 197 -109 349 -203 451 -155
167 -397 181 -697 38 -55 -26 -126 -64 -157 -84 l-56 -36 -11 39 c-6 22 -24
55 -39 73 -22 25 -30 46 -36 97 -12 108 -51 172 -127 211 -46 23 -149 32 -218
19z m201 -75 c50 -35 89 -104 96 -170 5 -39 3 -45 -13 -45 -28 0 -42 12 -58
50 -28 63 -72 100 -119 100 l-28 0 34 -29 c18 -16 45 -52 60 -80 l27 -50 -22
-15 c-12 -9 -26 -16 -30 -16 -4 0 -21 21 -39 46 -18 26 -46 52 -65 60 -46 19
-64 17 -36 -4 30 -23 82 -102 82 -125 0 -10 -12 -33 -27 -51 l-26 -34 -31 46
c-35 53 -88 92 -123 92 -23 0 -21 -3 22 -46 72 -72 100 -139 84 -199 -13 -46
-56 -70 -94 -53 -32 15 -53 53 -62 113 -5 36 -8 43 -19 34 -26 -21 -28 -75 -4
-123 26 -54 73 -86 125 -86 31 0 45 7 77 40 32 34 41 39 57 30 49 -26 155 -1
186 44 24 33 18 36 -27 16 -60 -27 -124 -26 -139 1 -19 36 -2 84 45 127 73 67
158 78 207 26 20 -21 24 -36 24 -87 -1 -98 -49 -172 -185 -280 -24 -19 -29
-26 -15 -23 82 20 75 22 75 -24 0 -36 -6 -48 -37 -80 -58 -57 -138 -83 -253
-84 -75 -1 -103 3 -134 18 -48 24 -77 70 -74 116 3 38 1 37 83 24 l40 -7 -66
64 c-41 40 -79 89 -100 129 -32 60 -34 72 -34 160 0 85 3 101 29 149 32 61
121 160 174 193 81 50 144 69 219 66 61 -3 78 -8 114 -33z m944 -293 c56 -28
122 -102 130 -145 7 -36 -8 -102 -26 -113 -5 -3 -34 10 -63 30 -85 57 -150 78
-254 84 -104 5 -111 10 -93 65 24 72 97 110 201 104 40 -3 81 -12 105 -25z
m-327 -344 c14 -13 33 -36 44 -53 l19 -30 -3 50 -3 50 50 -3 c53 -4 137 -35
156 -58 10 -12 6 -21 -16 -44 -33 -34 -29 -45 9 -30 15 5 48 10 72 10 60 0
104 -40 104 -95 0 -20 4 -34 9 -30 6 3 25 -8 44 -25 19 -16 42 -30 50 -30 22
0 40 -36 31 -62 -3 -11 -31 -47 -61 -80 -51 -56 -55 -63 -49 -96 4 -21 6 -48
6 -62 -1 -14 -1 -59 -1 -100 2 -98 -17 -148 -79 -203 -53 -48 -125 -80 -222
-98 -35 -7 -83 -21 -108 -33 -65 -30 -186 -29 -255 2 -60 28 -119 83 -147 137
-12 22 -49 82 -84 132 -70 103 -84 141 -84 225 0 80 24 134 72 164 23 15 46
40 54 60 8 19 21 34 29 34 33 0 46 44 43 148 -2 81 1 104 16 126 9 15 23 25
29 22 7 -2 29 -10 50 -17 20 -7 37 -16 37 -21 0 -5 10 1 22 12 47 43 117 42
166 -2z m-470 -74 c26 -18 28 -32 6 -62 -13 -18 -19 -21 -30 -11 -20 16 -28 5
-15 -19 13 -25 1 -194 -14 -199 -7 -2 -18 34 -28 83 -16 84 -16 87 3 125 11
21 20 49 20 62 0 40 20 48 58 21z m-469 -449 c24 -60 74 -169 111 -242 l68
-132 -46 -106 -47 -107 -19 24 c-33 40 -95 180 -117 263 -14 56 -21 115 -22
195 -2 121 10 238 22 224 4 -5 27 -58 50 -119z m1707 68 c5 -32 8 -105 7 -163
-1 -217 -80 -417 -230 -589 l-39 -43 -38 57 c-21 32 -69 88 -107 125 l-68 67
49 22 c27 12 63 36 81 52 26 24 40 29 83 29 160 0 289 168 246 319 -5 19 -19
44 -31 57 l-21 23 21 34 c11 19 21 42 21 51 0 9 4 16 9 16 5 0 13 -26 17 -57z
m-99 -83 c93 -56 49 -232 -74 -294 -41 -21 -113 -22 -113 -2 0 8 4 17 9 20 4
3 11 22 14 41 3 20 19 49 34 65 15 16 38 41 50 55 13 15 33 25 48 25 35 0 27
24 -9 28 -25 3 -27 6 -20 35 11 55 14 56 61 27z m-1195 -591 c68 -36 48 -169
-34 -219 l-30 -18 -44 31 c-24 17 -44 38 -45 46 -5 67 26 121 86 151 47 23 41
23 67 9z m778 -104 c47 -16 150 -82 150 -95 0 -5 -21 -21 -47 -36 -27 -15 -51
-32 -55 -38 -4 -6 -8 -41 -8 -78 0 -107 -26 -146 -76 -113 -42 27 -59 73 -59
158 1 76 0 78 -17 57 -34 -42 -32 -174 4 -217 7 -9 6 -20 -6 -39 -23 -34 -71
-30 -100 9 -17 23 -22 46 -24 116 -2 48 1 104 6 124 15 54 -5 47 -31 -10 -28
-61 -30 -181 -4 -231 16 -30 16 -33 1 -39 -25 -10 -82 23 -100 59 -23 45 -29
151 -11 216 8 28 10 52 5 52 -15 0 -47 -63 -54 -106 -10 -70 -75 -113 -113
-75 -17 17 -21 34 -21 84 1 137 95 231 188 185 25 -13 33 -13 55 -1 84 44 221
52 317 18z"/>
<path d="M1358 2029 c-54 -28 -57 -30 -46 -53 l11 -25 46 35 46 36 31 -37 31
-37 32 17 c39 19 43 17 56 -38 9 -35 15 -43 39 -45 25 -3 27 -1 21 20 -15 47
-56 118 -68 118 -6 -1 -23 -7 -37 -15 -35 -20 -35 -19 -59 20 -11 19 -26 35
-33 35 -7 -1 -39 -14 -70 -31z"/>
<path d="M1078 1665 c-72 -49 -106 -176 -74 -275 9 -28 14 -55 11 -60 -20 -33
-92 25 -101 81 -4 21 -10 39 -15 39 -17 0 -69 -63 -78 -96 -11 -39 -7 -57 21
-93 11 -14 18 -40 18 -66 0 -41 23 -76 58 -87 10 -2 14 -29 16 -93 3 -133 41
-209 121 -246 57 -27 121 -24 183 7 51 25 124 97 145 142 9 20 16 23 43 18 43
-9 81 8 102 44 13 23 24 30 49 30 46 0 73 38 73 105 0 28 -2 54 -5 57 -3 3
-22 -3 -43 -13 -38 -20 -97 -25 -120 -10 -24 14 -9 44 33 65 52 27 92 87 106
158 14 70 6 118 -27 157 -64 77 -189 33 -222 -77 -7 -23 -15 -42 -19 -42 -3 0
-26 7 -52 16 l-46 17 0 93 c0 89 -1 94 -29 123 -39 40 -94 42 -148 6z m131
-31 c28 -36 27 -41 -12 -36 -61 7 -126 -75 -127 -159 0 -20 -6 -42 -14 -48
-21 -18 -36 16 -36 81 0 66 39 151 78 173 44 23 88 19 111 -11z m2 -54 c10 -6
19 -20 19 -31 0 -16 -3 -18 -18 -10 -31 17 -65 -9 -82 -61 -19 -60 -40 -71
-40 -22 0 43 21 85 56 113 30 24 38 25 65 11z m363 -73 c43 -59 16 -208 -46
-251 -44 -31 -82 -8 -41 25 26 22 43 74 43 135 0 62 -18 94 -52 94 -20 0 -24
16 -5 24 32 13 80 0 101 -27z m-369 -33 c0 -10 -8 -20 -17 -22 -18 -3 -26 27
-11 42 12 11 28 0 28 -20z m299 4 c9 -12 16 -41 16 -63 0 -40 -29 -117 -48
-129 -21 -13 -22 14 -2 53 11 22 20 52 20 67 0 33 -26 64 -53 64 -16 0 -17 3
-7 15 18 22 57 18 74 -7z m-58 -69 c3 -6 -1 -18 -10 -27 -14 -14 -18 -15 -25
-3 -5 8 -7 20 -4 28 6 16 29 17 39 2z m-142 -25 c75 -38 126 -114 126 -186 -1
-76 -57 -118 -160 -118 -73 0 -114 16 -169 65 -54 49 -69 101 -46 160 20 53
41 73 97 91 49 15 105 11 152 -12z m-231 -369 c16 -4 43 -5 61 -2 29 5 39 0
67 -29 37 -38 88 -52 131 -36 33 12 35 3 10 -29 l-19 -22 -91 21 c-93 22 -200
68 -239 105 -14 12 -23 32 -23 50 l0 30 38 -41 c21 -22 50 -44 65 -47z"/>
<path d="M675 499 c-4 -12 -23 -39 -42 -60 -30 -33 -32 -39 -16 -39 27 0 71
49 79 88 7 36 -10 45 -21 11z"/>
</g>
</svg>
