<?xml version="1.0" encoding="UTF-8"?>
<svg xmlns="http://www.w3.org/2000/svg" xmlns:xlink="http://www.w3.org/1999/xlink" width="192px" height="192px" viewBox="0 0 192 192" version="1.1">
<g id="surface1">
<path style=" stroke:none;fill-rule:nonzero;fill:rgb(0%,0%,0%);fill-opacity:1;" d="M 37.5 0.785156 C 22.78125 3.136719 11.90625 9.960938 5.15625 21.175781 C -1.875 32.785156 -1.21875 44.628906 6.9375 54.980469 C 9.1875 57.726562 9.28125 58.195312 8.25 62.117188 C 6.75 67.921875 7.78125 70.273438 13.6875 75.136719 C 16.875 77.804688 18.65625 79.84375 18.375 80.550781 C 18.09375 81.175781 16.96875 85.253906 15.84375 89.648438 C 13.3125 100.078125 13.6875 116.46875 16.78125 125.332031 C 24.5625 147.765625 46.59375 166.511719 75 174.980469 C 78.375 175.921875 82.5 177.726562 84.1875 178.980469 C 87.65625 181.488281 92.15625 181.882812 95.4375 179.921875 C 97.3125 178.824219 97.5 178.824219 97.5 180 C 97.5 182.117188 101.0625 187.136719 104.0625 189.332031 C 108.09375 192.15625 111.28125 192.707031 114.65625 191.058594 C 116.90625 189.960938 117.9375 189.960938 120.46875 190.667969 C 124.78125 192 128.25 190.980469 130.40625 187.84375 C 132.1875 185.410156 132.46875 185.253906 135.09375 186.039062 C 138.84375 187.136719 143.0625 185.648438 144.9375 182.511719 C 146.0625 180.785156 146.25 178.902344 145.875 175.371094 C 145.5 172.707031 145.59375 170.195312 146.0625 169.648438 C 146.4375 169.097656 149.34375 167.292969 152.34375 165.648438 C 185.15625 147.921875 199.96875 111.765625 187.3125 80.390625 C 185.8125 76.46875 183.46875 69.175781 182.25 64.15625 C 178.5 48.707031 172.03125 36.785156 163.21875 28.785156 C 148.6875 15.6875 126 14.589844 97.875 25.804688 C 92.71875 27.84375 86.0625 30.824219 83.15625 32.390625 L 77.90625 35.214844 L 76.875 32.15625 C 76.3125 30.429688 74.625 27.84375 73.21875 26.429688 C 71.15625 24.46875 70.40625 22.824219 69.84375 18.824219 C 68.71875 10.351562 65.0625 5.332031 57.9375 2.273438 C 53.625 0.46875 43.96875 -0.234375 37.5 0.785156 Z M 56.34375 6.667969 C 61.03125 9.410156 64.6875 14.824219 65.34375 20 C 65.8125 23.058594 65.625 23.53125 64.125 23.53125 C 61.5 23.53125 60.1875 22.589844 58.6875 19.609375 C 56.0625 14.667969 51.9375 11.765625 47.53125 11.765625 L 44.90625 11.765625 L 48.09375 14.039062 C 49.78125 15.292969 52.3125 18.117188 53.71875 20.3125 L 56.25 24.234375 L 54.1875 25.410156 C 53.0625 26.117188 51.75 26.667969 51.375 26.667969 C 51 26.667969 49.40625 25.019531 47.71875 23.058594 C 46.03125 21.019531 43.40625 18.980469 41.625 18.351562 C 37.3125 16.863281 35.625 17.019531 38.25 18.667969 C 41.0625 20.46875 45.9375 26.667969 45.9375 28.46875 C 45.9375 29.253906 44.8125 31.058594 43.40625 32.46875 L 40.96875 35.136719 L 38.0625 31.53125 C 34.78125 27.371094 29.8125 24.3125 26.53125 24.3125 C 24.375 24.3125 24.5625 24.550781 28.59375 27.921875 C 35.34375 33.570312 37.96875 38.824219 36.46875 43.53125 C 35.25 47.136719 31.21875 49.019531 27.65625 47.6875 C 24.65625 46.511719 22.6875 43.53125 21.84375 38.824219 C 21.375 36 21.09375 35.449219 20.0625 36.15625 C 17.625 37.804688 17.4375 42.039062 19.6875 45.804688 C 22.125 50.039062 26.53125 52.550781 31.40625 52.550781 C 34.3125 52.550781 35.625 52 38.625 49.410156 C 41.625 46.746094 42.46875 46.351562 43.96875 47.058594 C 48.5625 49.097656 58.5 47.136719 61.40625 43.609375 C 63.65625 41.019531 63.09375 40.785156 58.875 42.351562 C 53.25 44.46875 47.25 44.390625 45.84375 42.273438 C 44.0625 39.449219 45.65625 35.6875 50.0625 32.3125 C 56.90625 27.058594 64.875 26.195312 69.46875 30.273438 C 71.34375 31.921875 71.71875 33.097656 71.71875 37.097656 C 71.625 44.785156 67.125 50.589844 54.375 59.058594 C 52.125 60.550781 51.65625 61.097656 52.96875 60.863281 C 60.65625 59.292969 60 59.136719 60 62.746094 C 60 65.570312 59.4375 66.511719 56.53125 69.019531 C 51.09375 73.488281 43.59375 75.53125 32.8125 75.609375 C 25.78125 75.6875 23.15625 75.371094 20.25 74.195312 C 15.75 72.3125 13.03125 68.707031 13.3125 65.097656 C 13.59375 62.117188 13.40625 62.195312 21.09375 63.214844 L 24.84375 63.765625 L 18.65625 58.746094 C 14.8125 55.609375 11.25 51.765625 9.28125 48.628906 C 6.28125 43.921875 6.09375 42.980469 6.09375 36.078125 C 6.09375 29.410156 6.375 28.15625 8.8125 24.390625 C 11.8125 19.609375 20.15625 11.84375 25.125 9.253906 C 32.71875 5.332031 38.625 3.84375 45.65625 4.078125 C 51.375 4.3125 52.96875 4.707031 56.34375 6.667969 Z M 144.84375 29.648438 C 150.09375 31.84375 156.28125 37.648438 157.03125 41.019531 C 157.6875 43.84375 156.28125 49.019531 154.59375 49.882812 C 154.125 50.117188 151.40625 49.097656 148.6875 47.53125 C 140.71875 43.058594 134.625 41.410156 124.875 40.941406 C 115.125 40.550781 114.46875 40.15625 116.15625 35.84375 C 118.40625 30.195312 125.25 27.214844 135 27.6875 C 138.75 27.921875 142.59375 28.628906 144.84375 29.648438 Z M 114.1875 56.628906 C 115.5 57.648438 117.28125 59.449219 118.3125 60.785156 L 120.09375 63.136719 L 119.53125 55.292969 L 124.21875 55.53125 C 129.1875 55.84375 137.0625 58.273438 138.84375 60.078125 C 139.78125 61.019531 139.40625 61.726562 137.34375 63.53125 C 134.25 66.195312 134.625 67.058594 138.1875 65.882812 C 139.59375 65.488281 142.6875 65.097656 144.9375 65.097656 C 150.5625 65.097656 154.6875 68.234375 154.6875 72.550781 C 154.6875 74.117188 155.0625 75.214844 155.53125 74.902344 C 156.09375 74.667969 157.875 75.53125 159.65625 76.863281 C 161.4375 78.117188 163.59375 79.214844 164.34375 79.214844 C 166.40625 79.214844 168.09375 82.039062 167.25 84.078125 C 166.96875 84.941406 164.34375 87.765625 161.53125 90.351562 C 156.75 94.746094 156.375 95.292969 156.9375 97.882812 C 157.3125 99.53125 157.5 101.648438 157.5 102.746094 C 157.40625 103.84375 157.40625 107.371094 157.40625 110.589844 C 157.59375 118.273438 155.8125 122.195312 150 126.511719 C 145.03125 130.273438 138.28125 132.785156 129.1875 134.195312 C 125.90625 134.746094 121.40625 135.84375 119.0625 136.785156 C 112.96875 139.136719 101.625 139.058594 95.15625 136.628906 C 89.53125 134.429688 84 130.117188 81.375 125.882812 C 80.25 124.15625 76.78125 119.449219 73.5 115.53125 C 66.9375 107.449219 65.625 104.46875 65.625 97.882812 C 65.625 91.609375 67.875 87.371094 72.375 85.019531 C 74.53125 83.84375 76.6875 81.882812 77.4375 80.3125 C 78.1875 78.824219 79.40625 77.648438 80.15625 77.648438 C 83.25 77.648438 84.46875 74.195312 84.1875 66.039062 C 84 59.6875 84.28125 57.882812 85.6875 56.15625 C 86.53125 54.980469 87.84375 54.195312 88.40625 54.429688 C 89.0625 54.589844 91.125 55.214844 93.09375 55.765625 C 94.96875 56.3125 96.5625 57.019531 96.5625 57.410156 C 96.5625 57.804688 97.5 57.332031 98.625 56.46875 C 103.03125 53.097656 109.59375 53.175781 114.1875 56.628906 Z M 70.125 62.429688 C 72.5625 63.84375 72.75 64.941406 70.6875 67.292969 C 69.46875 68.707031 68.90625 68.941406 67.875 68.15625 C 66 66.902344 65.25 67.765625 66.46875 69.648438 C 67.6875 71.609375 66.5625 84.863281 65.15625 85.253906 C 64.5 85.410156 63.46875 82.589844 62.53125 78.746094 C 61.03125 72.15625 61.03125 71.921875 62.8125 68.941406 C 63.84375 67.292969 64.6875 65.097656 64.6875 64.078125 C 64.6875 60.941406 66.5625 60.3125 70.125 62.429688 Z M 26.15625 97.648438 C 28.40625 102.351562 33.09375 110.902344 36.5625 116.628906 L 42.9375 126.980469 L 38.625 135.292969 L 34.21875 143.6875 L 32.4375 141.804688 C 29.34375 138.667969 23.53125 127.6875 21.46875 121.175781 C 20.15625 116.785156 19.5 112.15625 19.40625 105.882812 C 19.21875 96.390625 20.34375 87.214844 21.46875 88.3125 C 21.84375 88.707031 24 92.863281 26.15625 97.648438 Z M 186.1875 92.3125 C 186.65625 94.824219 186.9375 100.550781 186.84375 105.097656 C 186.75 122.117188 179.34375 137.804688 165.28125 151.292969 L 161.625 154.667969 L 158.0625 150.195312 C 156.09375 147.6875 151.59375 143.292969 148.03125 140.390625 L 141.65625 135.136719 L 146.25 133.410156 C 148.78125 132.46875 152.15625 130.589844 153.84375 129.332031 C 156.28125 127.449219 157.59375 127.058594 161.625 127.058594 C 176.625 127.058594 188.71875 113.882812 184.6875 102.039062 C 184.21875 100.550781 182.90625 98.589844 181.78125 97.570312 L 179.8125 95.765625 L 181.78125 93.097656 C 182.8125 91.609375 183.75 89.804688 183.75 89.097656 C 183.75 88.390625 184.125 87.84375 184.59375 87.84375 C 185.0625 87.84375 185.8125 89.882812 186.1875 92.3125 Z M 176.90625 98.824219 C 185.625 103.214844 181.5 117.019531 169.96875 121.882812 C 166.125 123.53125 159.375 123.609375 159.375 122.039062 C 159.375 121.410156 159.75 120.707031 160.21875 120.46875 C 160.59375 120.234375 161.25 118.746094 161.53125 117.253906 C 161.8125 115.6875 163.3125 113.410156 164.71875 112.15625 C 166.125 110.902344 168.28125 108.941406 169.40625 107.84375 C 170.625 106.667969 172.5 105.882812 173.90625 105.882812 C 177.1875 105.882812 176.4375 104 173.0625 103.6875 C 170.71875 103.449219 170.53125 103.214844 171.1875 100.941406 C 172.21875 96.628906 172.5 96.550781 176.90625 98.824219 Z M 64.875 145.175781 C 71.25 148 69.375 158.429688 61.6875 162.351562 L 58.875 163.765625 L 54.75 161.332031 C 52.5 160 50.625 158.351562 50.53125 157.726562 C 50.0625 152.46875 52.96875 148.234375 58.59375 145.882812 C 63 144.078125 62.4375 144.078125 64.875 145.175781 Z M 137.8125 153.332031 C 142.21875 154.589844 151.875 159.765625 151.875 160.785156 C 151.875 161.175781 149.90625 162.429688 147.46875 163.609375 C 144.9375 164.785156 142.6875 166.117188 142.3125 166.589844 C 141.9375 167.058594 141.5625 169.804688 141.5625 172.707031 C 141.5625 181.097656 139.125 184.15625 134.4375 181.570312 C 130.5 179.449219 128.90625 175.84375 128.90625 169.175781 C 129 163.214844 128.90625 163.058594 127.3125 164.707031 C 124.125 168 124.3125 178.351562 127.6875 181.726562 C 128.34375 182.429688 128.25 183.292969 127.125 184.785156 C 124.96875 187.449219 120.46875 187.136719 117.75 184.078125 C 116.15625 182.273438 115.6875 180.46875 115.5 174.980469 C 115.3125 171.214844 115.59375 166.824219 116.0625 165.253906 C 117.46875 161.019531 115.59375 161.570312 113.15625 166.039062 C 110.53125 170.824219 110.34375 180.234375 112.78125 184.15625 C 114.28125 186.511719 114.28125 186.746094 112.875 187.214844 C 110.53125 188 105.1875 185.410156 103.5 182.589844 C 101.34375 179.058594 100.78125 170.746094 102.46875 165.648438 C 103.21875 163.449219 103.40625 161.570312 102.9375 161.570312 C 101.53125 161.570312 98.53125 166.511719 97.875 169.882812 C 96.9375 175.371094 90.84375 178.746094 87.28125 175.765625 C 85.6875 174.429688 85.3125 173.097656 85.3125 169.175781 C 85.40625 158.429688 94.21875 151.058594 102.9375 154.667969 C 105.28125 155.6875 106.03125 155.6875 108.09375 154.746094 C 115.96875 151.292969 128.8125 150.667969 137.8125 153.332031 Z M 137.8125 153.332031 "/>
<path style=" stroke:none;fill-rule:nonzero;fill:rgb(0%,0%,0%);fill-opacity:1;" d="M 127.3125 33.019531 C 122.25 35.214844 121.96875 35.371094 123 37.175781 L 124.03125 39.136719 L 128.34375 36.390625 L 132.65625 33.570312 L 135.5625 36.46875 L 138.46875 39.371094 L 141.46875 38.039062 C 145.125 36.550781 145.5 36.707031 146.71875 41.019531 C 147.5625 43.765625 148.125 44.390625 150.375 44.550781 C 152.71875 44.785156 152.90625 44.628906 152.34375 42.980469 C 150.9375 39.292969 147.09375 33.726562 145.96875 33.726562 C 145.40625 33.804688 143.8125 34.273438 142.5 34.902344 C 139.21875 36.46875 139.21875 36.390625 136.96875 33.332031 C 135.9375 31.84375 134.53125 30.589844 133.875 30.589844 C 133.21875 30.667969 130.21875 31.6875 127.3125 33.019531 Z M 127.3125 33.019531 "/>
<path style=" stroke:none;fill-rule:nonzero;fill:rgb(0%,0%,0%);fill-opacity:1;" d="M 101.0625 61.570312 C 94.3125 65.410156 91.125 75.371094 94.125 83.136719 C 94.96875 85.332031 95.4375 87.449219 95.15625 87.84375 C 93.28125 90.429688 86.53125 85.882812 85.6875 81.488281 C 85.3125 79.84375 84.75 78.429688 84.28125 78.429688 C 82.6875 78.429688 77.8125 83.371094 76.96875 85.960938 C 75.9375 89.019531 76.3125 90.429688 78.9375 93.253906 C 79.96875 94.351562 80.625 96.390625 80.625 98.429688 C 80.625 101.648438 82.78125 104.390625 86.0625 105.253906 C 87 105.410156 87.375 107.53125 87.5625 112.550781 C 87.84375 122.980469 91.40625 128.941406 98.90625 131.84375 C 104.25 133.960938 110.25 133.726562 116.0625 131.292969 C 120.84375 129.332031 127.6875 123.6875 129.65625 120.15625 C 130.5 118.589844 131.15625 118.351562 133.6875 118.746094 C 137.71875 119.449219 141.28125 118.117188 143.25 115.292969 C 144.46875 113.488281 145.5 112.941406 147.84375 112.941406 C 152.15625 112.941406 154.6875 109.960938 154.6875 104.707031 C 154.6875 102.511719 154.5 100.46875 154.21875 100.234375 C 153.9375 100 152.15625 100.46875 150.1875 101.253906 C 146.625 102.824219 141.09375 103.214844 138.9375 102.039062 C 136.6875 100.941406 138.09375 98.589844 142.03125 96.941406 C 146.90625 94.824219 150.65625 90.117188 151.96875 84.550781 C 153.28125 79.058594 152.53125 75.292969 149.4375 72.234375 C 143.4375 66.195312 131.71875 69.648438 128.625 78.273438 C 127.96875 80.078125 127.21875 81.570312 126.84375 81.570312 C 126.5625 81.570312 124.40625 81.019531 121.96875 80.3125 L 117.65625 78.980469 L 117.65625 71.6875 C 117.65625 64.707031 117.5625 64.3125 114.9375 62.039062 C 111.28125 58.902344 106.125 58.746094 101.0625 61.570312 Z M 113.34375 64 C 115.96875 66.824219 115.875 67.214844 112.21875 66.824219 C 106.5 66.273438 100.40625 72.707031 100.3125 79.292969 C 100.3125 80.863281 99.75 82.589844 99 83.058594 C 97.03125 84.46875 95.625 81.804688 95.625 76.707031 C 95.625 71.53125 99.28125 64.863281 102.9375 63.136719 C 107.0625 61.332031 111.1875 61.648438 113.34375 64 Z M 113.53125 68.234375 C 114.46875 68.707031 115.3125 69.804688 115.3125 70.667969 C 115.3125 71.921875 115.03125 72.078125 113.625 71.449219 C 110.71875 70.117188 107.53125 72.15625 105.9375 76.234375 C 104.15625 80.941406 102.1875 81.804688 102.1875 77.960938 C 102.1875 74.589844 104.15625 71.292969 107.4375 69.097656 C 110.25 67.214844 111 67.136719 113.53125 68.234375 Z M 147.5625 73.960938 C 151.59375 78.589844 149.0625 90.273438 143.25 93.648438 C 139.125 96.078125 135.5625 94.273438 139.40625 91.6875 C 141.84375 89.960938 143.4375 85.882812 143.4375 81.097656 C 143.4375 76.234375 141.75 73.726562 138.5625 73.726562 C 136.6875 73.726562 136.3125 72.46875 138.09375 71.84375 C 141.09375 70.824219 145.59375 71.84375 147.5625 73.960938 Z M 112.96875 76.550781 C 112.96875 77.332031 112.21875 78.117188 111.375 78.273438 C 109.6875 78.511719 108.9375 76.15625 110.34375 74.980469 C 111.46875 74.117188 112.96875 74.980469 112.96875 76.550781 Z M 141 76.234375 C 141.84375 77.175781 142.5 79.449219 142.5 81.175781 C 142.5 84.3125 139.78125 90.351562 138 91.292969 C 136.03125 92.3125 135.9375 90.195312 137.8125 87.136719 C 138.84375 85.410156 139.6875 83.058594 139.6875 81.882812 C 139.6875 79.292969 137.25 76.863281 134.71875 76.863281 C 133.21875 76.863281 133.125 76.628906 134.0625 75.6875 C 135.75 73.960938 139.40625 74.273438 141 76.234375 Z M 135.5625 81.648438 C 135.84375 82.117188 135.46875 83.058594 134.625 83.765625 C 133.3125 84.863281 132.9375 84.941406 132.28125 84 C 131.8125 83.371094 131.625 82.429688 131.90625 81.804688 C 132.46875 80.550781 134.625 80.46875 135.5625 81.648438 Z M 122.25 83.609375 C 129.28125 86.589844 134.0625 92.550781 134.0625 98.195312 C 133.96875 104.15625 128.71875 107.449219 119.0625 107.449219 C 112.21875 107.449219 108.375 106.195312 103.21875 102.351562 C 98.15625 98.511719 96.75 94.429688 98.90625 89.804688 C 100.78125 85.648438 102.75 84.078125 108 82.667969 C 112.59375 81.488281 117.84375 81.804688 122.25 83.609375 Z M 100.59375 112.550781 C 102.09375 112.863281 104.625 112.941406 106.3125 112.707031 C 109.03125 112.3125 109.96875 112.707031 112.59375 114.980469 C 116.0625 117.960938 120.84375 119.058594 124.875 117.804688 C 127.96875 116.863281 128.15625 117.570312 125.8125 120.078125 L 124.03125 121.804688 L 115.5 120.15625 C 106.78125 118.429688 96.75 114.824219 93.09375 111.921875 C 91.78125 110.980469 90.9375 109.410156 90.9375 108 L 90.9375 105.648438 L 94.5 108.863281 C 96.46875 110.589844 99.1875 112.3125 100.59375 112.550781 Z M 100.59375 112.550781 "/>
<path style=" stroke:none;fill-rule:nonzero;fill:rgb(0%,0%,0%);fill-opacity:1;" d="M 63.28125 153.019531 C 62.90625 153.960938 61.125 156.078125 59.34375 157.726562 C 56.53125 160.3125 56.34375 160.785156 57.84375 160.785156 C 60.375 160.785156 64.5 156.941406 65.25 153.882812 C 65.90625 151.058594 64.3125 150.351562 63.28125 153.019531 Z M 63.28125 153.019531 "/>
</g>
</svg>
