<?xml version="1.0" encoding="UTF-8"?>
<svg xmlns="http://www.w3.org/2000/svg" xmlns:xlink="http://www.w3.org/1999/xlink" width="512px" height="512px" viewBox="0 0 512 512" version="1.1">
<g id="surface1">
<path style=" stroke:none;fill-rule:nonzero;fill:rgb(0%,0%,0%);fill-opacity:1;" d="M 100 2.089844 C 60.75 8.367188 31.75 26.5625 13.75 56.46875 C -5 87.425781 -3.25 119.007812 18.5 146.613281 C 24.5 153.933594 24.75 155.191406 22 165.648438 C 18 181.125 20.75 187.398438 36.5 200.367188 C 45 207.476562 49.75 212.914062 49 214.796875 C 48.25 216.46875 45.25 227.347656 42.25 239.058594 C 35.5 266.875 36.5 310.589844 44.75 334.222656 C 65.5 394.039062 124.25 444.027344 200 466.613281 C 209 469.125 220 473.933594 224.5 477.28125 C 233.75 483.972656 245.75 485.019531 254.5 479.789062 C 259.5 476.863281 260 476.863281 260 480 C 260 485.648438 269.5 499.03125 277.5 504.890625 C 288.25 512.417969 296.75 513.882812 305.75 509.488281 C 311.75 506.5625 314.5 506.5625 321.25 508.445312 C 332.75 512 342 509.28125 347.75 500.914062 C 352.5 494.429688 353.25 494.011719 360.25 496.105469 C 370.25 499.03125 381.5 495.058594 386.5 486.691406 C 389.5 482.089844 390 477.070312 389 467.660156 C 388 460.550781 388.25 453.855469 389.5 452.390625 C 390.5 450.929688 398.25 446.117188 406.25 441.726562 C 493.75 394.457031 533.25 298.039062 499.5 214.378906 C 495.5 203.921875 489.25 184.46875 486 171.085938 C 476 129.882812 458.75 98.089844 435.25 76.757812 C 396.5 41.828125 336 38.902344 261 68.808594 C 247.25 74.25 229.5 82.195312 221.75 86.378906 L 207.75 93.910156 L 205 85.75 C 203.5 81.148438 199 74.25 195.25 70.484375 C 189.75 65.253906 187.75 60.863281 186.25 50.195312 C 183.25 27.609375 173.5 14.222656 154.5 6.066406 C 143 1.253906 117.25 -0.628906 100 2.089844 Z M 150.25 17.777344 C 162.75 25.097656 172.5 39.53125 174.25 53.332031 C 175.5 61.488281 175 62.746094 171 62.746094 C 164 62.746094 160.5 60.234375 156.5 52.289062 C 149.5 39.109375 138.5 31.371094 126.75 31.371094 L 119.75 31.371094 L 128.25 37.4375 C 132.75 40.785156 139.5 48.3125 143.25 54.171875 L 150 64.628906 L 144.5 67.765625 C 141.5 69.648438 138 71.109375 137 71.109375 C 136 71.109375 131.75 66.71875 127.25 61.488281 C 122.75 56.050781 115.75 50.613281 111 48.941406 C 99.5 44.96875 95 45.386719 102 49.777344 C 109.5 54.589844 122.5 71.109375 122.5 75.921875 C 122.5 78.011719 119.5 82.824219 115.75 86.589844 L 109.25 93.699219 L 101.5 84.078125 C 92.75 72.992188 79.5 64.835938 70.75 64.835938 C 65 64.835938 65.5 65.464844 76.25 74.457031 C 94.25 89.515625 101.25 103.53125 97.25 116.078125 C 94 125.699219 83.25 130.71875 73.75 127.164062 C 65.75 124.027344 60.5 116.078125 58.25 103.53125 C 57 96 56.25 94.535156 53.5 96.417969 C 47 100.808594 46.5 112.105469 52.5 122.144531 C 59 133.4375 70.75 140.128906 83.75 140.128906 C 91.5 140.128906 95 138.667969 103 131.765625 C 111 124.652344 113.25 123.609375 117.25 125.488281 C 129.5 130.929688 156 125.699219 163.75 116.289062 C 169.75 109.386719 168.25 108.757812 157 112.941406 C 142 118.589844 126 118.378906 122.25 112.730469 C 117.5 105.203125 121.75 95.164062 133.5 86.171875 C 151.75 72.15625 173 69.855469 185.25 80.730469 C 190.25 85.125 191.25 88.261719 191.25 98.929688 C 191 119.425781 179 134.902344 145 157.488281 C 139 161.464844 137.75 162.929688 141.25 162.300781 C 161.75 158.117188 160 157.699219 160 167.320312 C 160 174.851562 158.5 177.359375 150.75 184.050781 C 136.25 195.972656 116.25 201.410156 87.5 201.621094 C 68.75 201.828125 61.75 200.992188 54 197.855469 C 42 192.835938 34.75 183.214844 35.5 173.59375 C 36.25 165.648438 35.75 165.855469 56.25 168.574219 L 66.25 170.039062 L 49.75 156.652344 C 39.5 148.289062 30 138.039062 24.75 129.671875 C 16.75 117.125 16.25 114.613281 16.25 96.210938 C 16.25 78.429688 17 75.085938 23.5 65.046875 C 31.5 52.289062 53.75 31.582031 67 24.679688 C 87.25 14.222656 103 10.25 121.75 10.875 C 137 11.503906 141.25 12.550781 150.25 17.777344 Z M 386.25 79.058594 C 400.25 84.914062 416.75 100.390625 418.75 109.386719 C 420.5 116.914062 416.75 130.71875 412.25 133.019531 C 411 133.648438 403.75 130.929688 396.5 126.746094 C 375.25 114.824219 359 110.429688 333 109.175781 C 307 108.128906 305.25 107.085938 309.75 95.582031 C 315.75 80.523438 334 72.574219 360 73.828125 C 370 74.457031 380.25 76.339844 386.25 79.058594 Z M 304.5 151.007812 C 308 153.726562 312.75 158.535156 315.5 162.089844 L 320.25 168.367188 L 319.5 157.910156 L 318.75 147.449219 L 331.25 148.078125 C 344.5 148.914062 365.5 155.398438 370.25 160.210938 C 372.75 162.71875 371.75 164.601562 366.25 169.410156 C 358 176.523438 359 178.824219 368.5 175.6875 C 372.25 174.640625 380.5 173.59375 386.5 173.59375 C 401.5 173.59375 412.5 181.960938 412.5 193.464844 C 412.5 197.648438 413.5 200.574219 414.75 199.738281 C 416.25 199.109375 421 201.410156 425.75 204.96875 C 430.5 208.3125 436.25 211.242188 438.25 211.242188 C 443.75 211.242188 448.25 218.769531 446 224.210938 C 445.25 226.511719 438.25 234.039062 430.75 240.941406 C 418 252.652344 417 254.117188 418.5 261.019531 C 419.5 265.410156 420 271.058594 420 273.988281 C 419.75 276.914062 419.75 286.328125 419.75 294.902344 C 420.25 315.398438 415.5 325.855469 400 337.359375 C 386.75 347.398438 368.75 354.089844 344.5 357.855469 C 335.75 359.320312 323.75 362.25 317.5 364.757812 C 301.25 371.03125 271 370.824219 253.75 364.339844 C 238.75 358.484375 224 346.980469 217 335.6875 C 214 331.085938 204.75 318.535156 196 308.078125 C 178.5 286.535156 175 278.589844 175 261.019531 C 175 244.289062 181 232.992188 193 226.71875 C 198.75 223.582031 204.5 218.351562 206.5 214.171875 C 208.5 210.195312 211.75 207.058594 213.75 207.058594 C 222 207.058594 225.25 197.855469 224.5 176.105469 C 224 159.164062 224.75 154.351562 228.5 149.75 C 230.75 146.613281 234.25 144.523438 235.75 145.148438 C 237.5 145.570312 243 147.242188 248.25 148.707031 C 253.25 150.171875 257.5 152.050781 257.5 153.097656 C 257.5 154.144531 260 152.890625 263 150.589844 C 274.75 141.59375 292.25 141.804688 304.5 151.007812 Z M 187 166.484375 C 193.5 170.25 194 173.175781 188.5 179.449219 C 185.25 183.214844 183.75 183.84375 181 181.75 C 176 178.40625 174 180.707031 177.25 185.726562 C 180.5 190.953125 177.5 226.300781 173.75 227.347656 C 172 227.765625 169.25 220.234375 166.75 209.988281 C 162.75 192.417969 162.75 191.789062 167.5 183.84375 C 170.25 179.449219 172.5 173.59375 172.5 170.875 C 172.5 162.511719 177.5 160.835938 187 166.484375 Z M 69.75 260.390625 C 75.75 272.941406 88.25 295.738281 97.5 311.007812 L 114.5 338.613281 L 103 360.785156 L 91.25 383.164062 L 86.5 378.144531 C 78.25 369.777344 62.75 340.496094 57.25 323.136719 C 53.75 311.425781 52 299.085938 51.75 282.351562 C 51.25 257.046875 54.25 232.574219 57.25 235.503906 C 58.25 236.550781 64 247.632812 69.75 260.390625 Z M 496.5 246.171875 C 497.75 252.863281 498.5 268.128906 498.25 280.261719 C 498 325.648438 478.25 367.476562 440.75 403.449219 L 431 412.445312 L 421.5 400.523438 C 416.25 393.828125 404.25 382.117188 394.75 374.378906 L 377.75 360.367188 L 390 355.765625 C 396.75 353.253906 405.75 348.234375 410.25 344.890625 C 416.75 339.871094 420.25 338.824219 431 338.824219 C 471 338.824219 503.25 303.6875 492.5 272.105469 C 491.25 268.128906 487.75 262.902344 484.75 260.183594 L 479.5 255.371094 L 484.75 248.261719 C 487.5 244.289062 490 239.476562 490 237.59375 C 490 235.710938 491 234.25 492.25 234.25 C 493.5 234.25 495.5 239.6875 496.5 246.171875 Z M 471.75 263.53125 C 495 275.242188 484 312.050781 453.25 325.019531 C 443 329.410156 425 329.621094 425 325.4375 C 425 323.765625 426 321.882812 427.25 321.253906 C 428.25 320.628906 430 316.652344 430.75 312.679688 C 431.5 308.496094 435.5 302.429688 439.25 299.085938 C 443 295.738281 448.75 290.511719 451.75 287.582031 C 455 284.445312 460 282.351562 463.75 282.351562 C 472.5 282.351562 470.5 277.332031 461.5 276.496094 C 455.25 275.871094 454.75 275.242188 456.5 269.175781 C 459.25 257.671875 460 257.464844 471.75 263.53125 Z M 173 387.136719 C 190 394.667969 185 422.484375 164.5 432.941406 L 157 436.707031 L 146 430.222656 C 140 426.667969 135 422.273438 134.75 420.601562 C 133.5 406.589844 141.25 395.292969 156.25 389.019531 C 168 384.210938 166.5 384.210938 173 387.136719 Z M 367.5 408.890625 C 379.25 412.234375 405 426.039062 405 428.757812 C 405 429.804688 399.75 433.148438 393.25 436.289062 C 386.5 439.425781 380.5 442.980469 379.5 444.234375 C 378.5 445.488281 377.5 452.808594 377.5 460.550781 C 377.5 482.929688 371 491.085938 358.5 484.183594 C 348 478.535156 343.75 468.914062 343.75 451.136719 C 344 435.242188 343.75 434.824219 339.5 439.214844 C 331 448 331.5 475.609375 340.5 484.601562 C 342.25 486.484375 342 488.785156 339 492.757812 C 333.25 499.871094 321.25 499.03125 314 490.875 C 309.75 486.066406 308.5 481.253906 308 466.613281 C 307.5 456.574219 308.25 444.863281 309.5 440.679688 C 313.25 429.386719 308.25 430.851562 301.75 442.769531 C 294.75 455.53125 294.25 480.628906 300.75 491.085938 C 304.75 497.359375 304.75 497.988281 301 499.242188 C 294.75 501.332031 280.5 494.429688 276 486.902344 C 270.25 477.488281 268.75 455.320312 273.25 441.726562 C 275.25 435.871094 275.75 430.851562 274.5 430.851562 C 270.75 430.851562 262.75 444.027344 261 453.019531 C 258.5 467.660156 242.25 476.652344 232.75 468.707031 C 228.5 465.148438 227.5 461.59375 227.5 451.136719 C 227.75 422.484375 251.25 402.824219 274.5 412.445312 C 280.75 415.164062 282.75 415.164062 288.25 412.652344 C 309.25 403.449219 343.5 401.777344 367.5 408.890625 Z M 367.5 408.890625 "/>
<path style=" stroke:none;fill-rule:nonzero;fill:rgb(0%,0%,0%);fill-opacity:1;" d="M 339.5 88.050781 C 326 93.910156 325.25 94.328125 328 99.136719 L 330.75 104.367188 L 342.25 97.046875 L 353.75 89.515625 L 369.25 104.992188 L 377.25 101.4375 C 387 97.464844 388 97.882812 391.25 109.386719 C 393.5 116.707031 395 118.378906 401 118.796875 C 407.25 119.425781 407.75 119.007812 406.25 114.613281 C 402.5 104.785156 392.25 89.933594 389.25 89.933594 C 387.75 90.144531 383.5 91.398438 380 93.070312 C 371.25 97.253906 371.25 97.046875 365.25 88.890625 C 362.5 84.914062 358.75 81.570312 357 81.570312 C 355.25 81.777344 347.25 84.496094 339.5 88.050781 Z M 339.5 88.050781 "/>
<path style=" stroke:none;fill-rule:nonzero;fill:rgb(0%,0%,0%);fill-opacity:1;" d="M 269.5 164.183594 C 251.5 174.429688 243 200.992188 251 221.699219 C 253.25 227.554688 254.5 233.203125 253.75 234.25 C 248.75 241.148438 230.75 229.019531 228.5 217.308594 C 227.5 212.914062 226 209.148438 224.75 209.148438 C 220.5 209.148438 207.5 222.328125 205.25 229.230469 C 202.5 237.386719 203.5 241.148438 210.5 248.679688 C 213.25 251.609375 215 257.046875 215 262.484375 C 215 271.058594 220.75 278.378906 229.5 280.679688 C 232 281.097656 233 286.746094 233.5 300.128906 C 234.25 327.949219 243.75 343.84375 263.75 351.582031 C 278 357.230469 294 356.601562 309.5 350.117188 C 322.25 344.890625 340.5 329.828125 345.75 320.417969 C 348 316.234375 349.75 315.609375 356.5 316.652344 C 367.25 318.535156 376.75 314.980469 382 307.449219 C 385.25 302.640625 388 301.175781 394.25 301.175781 C 405.75 301.175781 412.5 293.230469 412.5 279.214844 C 412.5 273.359375 412 267.921875 411.25 267.292969 C 410.5 266.667969 405.75 267.921875 400.5 270.011719 C 391 274.195312 376.25 275.242188 370.5 272.105469 C 364.5 269.175781 368.25 262.902344 378.75 258.511719 C 391.75 252.863281 401.75 240.3125 405.25 225.464844 C 408.75 210.824219 406.75 200.785156 398.5 192.628906 C 382.5 176.523438 351.25 185.726562 343 208.730469 C 341.25 213.542969 339.25 217.515625 338.25 217.515625 C 337.5 217.515625 331.75 216.050781 325.25 214.171875 L 313.75 210.613281 L 313.75 191.164062 C 313.75 172.550781 313.5 171.503906 306.5 165.4375 C 296.75 157.070312 283 156.652344 269.5 164.183594 Z M 302.25 170.667969 C 309.25 178.195312 309 179.242188 299.25 178.195312 C 284 176.730469 267.75 193.882812 267.5 211.449219 C 267.5 215.632812 266 220.234375 264 221.488281 C 258.75 225.253906 255 218.144531 255 204.550781 C 255 190.746094 264.75 172.96875 274.5 168.367188 C 285.5 163.554688 296.5 164.390625 302.25 170.667969 Z M 302.75 181.960938 C 305.25 183.214844 307.5 186.144531 307.5 188.445312 C 307.5 191.789062 306.75 192.210938 303 190.535156 C 295.25 186.980469 286.75 192.417969 282.5 203.292969 C 277.75 215.84375 272.5 218.144531 272.5 207.894531 C 272.5 198.902344 277.75 190.117188 286.5 184.261719 C 294 179.242188 296 179.03125 302.75 181.960938 Z M 393.5 197.230469 C 404.25 209.570312 397.5 240.730469 382 249.726562 C 371 256.210938 361.5 251.398438 371.75 244.496094 C 378.25 239.894531 382.5 229.019531 382.5 216.261719 C 382.5 203.292969 378 196.601562 369.5 196.601562 C 364.5 196.601562 363.5 193.253906 368.25 191.582031 C 376.25 188.863281 388.25 191.582031 393.5 197.230469 Z M 301.25 204.128906 C 301.25 206.222656 299.25 208.3125 297 208.730469 C 292.5 209.359375 290.5 203.085938 294.25 199.949219 C 297.25 197.648438 301.25 199.949219 301.25 204.128906 Z M 376 203.292969 C 378.25 205.804688 380 211.871094 380 216.46875 C 380 224.835938 372.75 240.941406 368 243.449219 C 362.75 246.171875 362.5 240.523438 367.5 232.367188 C 370.25 227.765625 372.5 221.488281 372.5 218.351562 C 372.5 211.449219 366 204.96875 359.25 204.96875 C 355.25 204.96875 355 204.339844 357.5 201.828125 C 362 197.230469 371.75 198.066406 376 203.292969 Z M 361.5 217.726562 C 362.25 218.980469 361.25 221.488281 359 223.371094 C 355.5 226.300781 354.5 226.511719 352.75 224 C 351.5 222.328125 351 219.816406 351.75 218.144531 C 353.25 214.796875 359 214.589844 361.5 217.726562 Z M 326 222.953125 C 344.75 230.902344 357.5 246.796875 357.5 261.855469 C 357.25 277.75 343.25 286.535156 317.5 286.535156 C 299.25 286.535156 289 283.191406 275.25 272.941406 C 261.75 262.691406 258 251.816406 263.75 239.476562 C 268.75 228.390625 274 224.210938 288 220.445312 C 300.25 217.308594 314.25 218.144531 326 222.953125 Z M 268.25 300.128906 C 272.25 300.96875 279 301.175781 283.5 300.550781 C 290.75 299.503906 293.25 300.550781 300.25 306.613281 C 309.5 314.5625 322.25 317.488281 333 314.144531 C 341.25 311.632812 341.75 313.515625 335.5 320.210938 L 330.75 324.808594 L 308 320.417969 C 284.75 315.816406 258 306.195312 248.25 298.457031 C 244.75 295.949219 242.5 291.765625 242.5 288 L 242.5 281.726562 L 252 290.300781 C 257.25 294.902344 264.5 299.503906 268.25 300.128906 Z M 268.25 300.128906 "/>
<path style=" stroke:none;fill-rule:nonzero;fill:rgb(0%,0%,0%);fill-opacity:1;" d="M 168.75 408.050781 C 167.75 410.5625 163 416.210938 158.25 420.601562 C 150.75 427.503906 150.25 428.757812 154.25 428.757812 C 161 428.757812 172 418.511719 174 410.351562 C 175.75 402.824219 171.5 400.941406 168.75 408.050781 Z M 168.75 408.050781 "/>
</g>
</svg>
